# xmcd
#
# Track frame offsets:
#	150
#	15604
#	28320
#	48271
#	60817
#	79340
#	92224
#	106838
#	118505
#	134100
#	142909
#	157550
#	178735
#	196519
#	205376
#	219214
#	230202
#	238840
#	256842
#	272390
#	286666
#	298516
#
# Disc length: 4255 seconds
#
# Revision: 0
# Processed by: cddbd v1.5PL3 Copyright (c) Steve Scherf et al.
# Submitted via: dBpowerAMP V4.0
#
DISCID=2e109d16
DTITLE=Horse Play - Collection
DYEAR=1900
DGENRE=Bluegrass
TTITLE0=Old Joe Clark
TTITLE1=Rolling in My Sweet Baby's Arms
TTITLE2=Gospel Medley
TTITLE3=Lime Rock/Dixie Breakdown
TTITLE4=Wayfaring Stranger
TTITLE5=Cripple Creek
TTITLE6=Miles and Miles of Texas
TTITLE7=Fox on the Run
TTITLE8=Orange Blossom Special
TTITLE9=Little Girl of Mine in Tennessee
TTITLE10=Rocky Top
TTITLE11=Tennessee Waltz
TTITLE12=Western Swing Medley
TTITLE13=Ballad of Jed Clampet
TTITLE14=High on a Mountain
TTITLE15=Wood Sheddin'
TTITLE16=Tennessee
TTITLE17=How Great Thou Art
TTITLE18=Sweet Georgia Brown
TTITLE19=Amazing Grace
TTITLE20=Alabama Jubilee
TTITLE21=Tuner Tunes
EXTD=
EXTT0=
EXTT1=
EXTT2=
EXTT3=
EXTT4=
EXTT5=
EXTT6=
EXTT7=
EXTT8=
EXTT9=
EXTT10=
EXTT11=
EXTT12=
EXTT13=
EXTT14=
EXTT15=
EXTT16=
EXTT17=
EXTT18=
EXTT19=
EXTT20=
EXTT21=
PLAYORDER=
